<svg width="58" height="58" viewBox="0 0 58 58" fill="none" xmlns="http://www.w3.org/2000/svg">
<path d="M39.0931 21.25H7.78403C4.54187 21.25 1.91357 23.8523 1.91357 27.0625V40.625C1.91357 43.8352 4.54187 46.4375 7.78403 46.4375H39.0931C42.3353 46.4375 44.9636 43.8352 44.9636 40.625V27.0625C44.9636 23.8523 42.3353 21.25 39.0931 21.25Z" fill="#FF3D00"/>
<path d="M56.7045 42.5625L44.9636 36.75V30.9375L56.7045 25.125V42.5625Z" fill="#FF3D00"/>
<path d="M33.2227 17.375C37.5455 17.375 41.0499 13.9052 41.0499 9.625C41.0499 5.34479 37.5455 1.875 33.2227 1.875C28.8998 1.875 25.3954 5.34479 25.3954 9.625C25.3954 13.9052 28.8998 17.375 33.2227 17.375Z" fill="#FF3D00"/>
<path d="M13.6545 17.375C16.8967 17.375 19.525 14.7727 19.525 11.5625C19.525 8.35234 16.8967 5.75 13.6545 5.75C10.4123 5.75 7.78406 8.35234 7.78406 11.5625C7.78406 14.7727 10.4123 17.375 13.6545 17.375Z" fill="#FF3D00"/>
<path d="M57.2191 24.3016C57.0772 24.215 56.9153 24.1656 56.7487 24.1582C56.5822 24.1507 56.4164 24.1854 56.2672 24.2589L45.942 29.3701V27.0625C45.9399 25.2646 45.2177 23.541 43.9337 22.2697C42.6498 20.9984 40.9089 20.2833 39.0931 20.2813H7.78404C5.96825 20.2833 4.22742 20.9984 2.94345 22.2697C1.65949 23.541 0.937252 25.2646 0.935181 27.0625V40.625C0.937252 42.4229 1.65949 44.1465 2.94345 45.4178C4.22742 46.6891 5.96825 47.4042 7.78404 47.4063H21.0767L12.9628 55.4401C12.7845 55.6228 12.6859 55.8675 12.6882 56.1215C12.6904 56.3755 12.7933 56.6185 12.9747 56.7981C13.1561 56.9777 13.4015 57.0796 13.658 57.0818C13.9146 57.084 14.1617 56.9864 14.3462 56.8099L23.4386 47.8073L32.5309 56.8099C32.7155 56.9864 32.9626 57.084 33.2192 57.0818C33.4757 57.0796 33.7211 56.9777 33.9025 56.7981C34.0839 56.6185 34.1868 56.3755 34.189 56.1215C34.1913 55.8675 34.0926 55.6228 33.9144 55.4401L25.8005 47.4063H39.0931C40.9089 47.4042 42.6498 46.6891 43.9337 45.4178C45.2177 44.1465 45.9399 42.4229 45.942 40.625V38.3174L56.2672 43.4295C56.4164 43.5034 56.5821 43.5382 56.7488 43.5307C56.9154 43.5232 57.0773 43.4737 57.2192 43.3868C57.361 43.3 57.4781 43.1786 57.5593 43.0344C57.6404 42.8901 57.683 42.7276 57.6829 42.5625V25.125C57.6828 24.96 57.6402 24.7978 57.559 24.6537C57.4779 24.5096 57.3609 24.3884 57.2191 24.3016ZM43.9852 40.625C43.9836 41.9092 43.4677 43.1403 42.5506 44.0484C41.6335 44.9564 40.3901 45.4672 39.0931 45.4688H7.78404C6.48707 45.4672 5.24366 44.9564 4.32656 44.0484C3.40946 43.1403 2.89355 41.9092 2.892 40.625V27.0625C2.89355 25.7783 3.40946 24.5472 4.32656 23.6392C5.24366 22.7311 6.48707 22.2203 7.78404 22.2188H39.0931C40.3901 22.2203 41.6335 22.7311 42.5506 23.6392C43.4677 24.5472 43.9836 25.7783 43.9852 27.0625V40.625ZM55.7261 40.9951L45.942 36.1513V31.5362L55.7261 26.6924V40.9951ZM33.2227 18.3438C34.9643 18.3438 36.6668 17.8324 38.1149 16.8744C39.5629 15.9164 40.6916 14.5547 41.3581 12.9615C42.0246 11.3684 42.1989 9.61533 41.8592 7.92406C41.5194 6.23279 40.6807 4.67926 39.4492 3.45992C38.2177 2.24058 36.6487 1.4102 34.9406 1.07378C33.2324 0.737367 31.4619 0.910028 29.8529 1.56993C28.2439 2.22983 26.8686 3.34733 25.901 4.78113C24.9334 6.21492 24.417 7.9006 24.417 9.625C24.4196 11.9366 25.3482 14.1527 26.999 15.7873C28.6498 17.4218 30.8881 18.3412 33.2227 18.3438ZM33.2227 2.84375C34.5773 2.84375 35.9014 3.24147 37.0277 3.9866C38.154 4.73173 39.0318 5.79082 39.5502 7.02993C40.0686 8.26904 40.2042 9.63253 39.9399 10.948C39.6757 12.2634 39.0234 13.4717 38.0656 14.4201C37.1077 15.3684 35.8874 16.0143 34.5588 16.276C33.2303 16.5376 31.8532 16.4033 30.6017 15.8901C29.3503 15.3768 28.2806 14.5076 27.5281 13.3925C26.7755 12.2773 26.3738 10.9662 26.3738 9.625C26.3759 7.82713 27.0981 6.10349 28.3821 4.8322C29.6661 3.56092 31.4069 2.84581 33.2227 2.84375ZM13.6545 18.3438C15.0091 18.3438 16.3332 17.946 17.4595 17.2009C18.5858 16.4558 19.4637 15.3967 19.982 14.1576C20.5004 12.9185 20.636 11.555 20.3718 10.2395C20.1075 8.92411 19.4552 7.71581 18.4974 6.76744C17.5395 5.81906 16.3192 5.17321 14.9906 4.91155C13.6621 4.6499 12.285 4.78419 11.0336 5.29745C9.78209 5.8107 8.71244 6.67987 7.95988 7.79504C7.20731 8.91021 6.80564 10.2213 6.80564 11.5625C6.80771 13.3604 7.52995 15.084 8.81391 16.3553C10.0979 17.6266 11.8387 18.3417 13.6545 18.3438ZM13.6545 6.71875C14.6221 6.71875 15.5679 7.00284 16.3724 7.53507C17.1769 8.06731 17.8039 8.8238 18.1742 9.70888C18.5444 10.594 18.6413 11.5679 18.4525 12.5075C18.2638 13.4471 17.7979 14.3101 17.1137 14.9876C16.4295 15.665 15.5579 16.1263 14.6089 16.3132C13.6599 16.5001 12.6763 16.4042 11.7824 16.0375C10.8885 15.6709 10.1245 15.0501 9.58691 14.2535C9.04937 13.457 8.76245 12.5205 8.76245 11.5625C8.76401 10.2783 9.27992 9.0472 10.197 8.13915C11.1141 7.23111 12.3575 6.72029 13.6545 6.71875Z" fill="white"/>
</svg>
